<?xml version="1.0" encoding="UTF-8" standalone="no"?>
<!DOCTYPE svg PUBLIC "-//W3C//DTD SVG 1.1//EN" "http://www.w3.org/Graphics/SVG/1.1/DTD/svg11.dtd">
<svg width="100%" height="100%" viewBox="0 0 20 30" version="1.1" xmlns="http://www.w3.org/2000/svg" xmlns:xlink="http://www.w3.org/1999/xlink" xml:space="preserve" xmlns:serif="http://www.serif.com/" style="fill-rule:evenodd;clip-rule:evenodd;stroke-linejoin:round;stroke-miterlimit:1.41421;">
    <g transform="matrix(0.0596659,0,0,0.0596659,-5.41766,-0.193914)">
        <path d="M258.4,87.05C350.901,87.05 426,162.149 426,254.65C426,347.151 350.901,422.25 258.4,422.25C165.899,422.25 90.8,347.151 90.8,254.65C90.8,162.149 165.899,87.05 258.4,87.05ZM266.8,386.05L266.8,364.45C275.4,364.25 283.4,362.75 290.8,359.95C298.2,357.15 304.65,353.3 310.15,348.4C315.65,343.5 319.95,337.6 323.05,330.7C326.15,323.8 327.7,316.15 327.7,307.75C327.7,297.95 325.95,289.65 322.45,282.85C318.95,276.05 314.35,270.2 308.65,265.3C302.95,260.4 296.45,256.3 289.15,253C281.85,249.7 274.4,246.75 266.8,244.15L266.8,161.65C274,161.85 281.15,163.6 288.25,166.9C295.35,170.2 301.2,175.15 305.8,181.75L322.3,169.15C318.9,165.15 315,161.65 310.6,158.65C306.2,155.65 301.55,153.15 296.65,151.15C291.75,149.15 286.75,147.65 281.65,146.65C276.55,145.65 271.6,145.05 266.8,144.85L266.8,123.25L252.4,123.25L252.4,144.85C244.6,145.25 237.2,146.8 230.2,149.5C223.2,152.2 217.05,156 211.75,160.9C206.45,165.8 202.25,171.7 199.15,178.6C196.05,185.5 194.5,193.25 194.5,201.85C194.5,211.05 196.25,218.9 199.75,225.4C203.25,231.9 207.75,237.45 213.25,242.05C218.75,246.65 224.95,250.45 231.85,253.45C238.75,256.45 245.6,258.95 252.4,260.95L252.4,347.05C249.2,347.05 245.5,346.5 241.3,345.4C237.1,344.3 232.85,342.65 228.55,340.45C224.25,338.25 220.1,335.55 216.1,332.35C212.1,329.15 208.8,325.25 206.2,320.65L189.1,332.65C196.3,341.85 205.25,349.35 215.95,355.15C226.65,360.95 238.8,364.05 252.4,364.45L252.4,386.05L266.8,386.05ZM266.8,347.05C271.2,346.85 275.75,346 280.45,344.5C285.15,343 289.4,340.65 293.2,337.45C297,334.25 300.1,330.1 302.5,325C304.9,319.9 306.1,313.65 306.1,306.25C306.1,296.05 302.4,287.45 295,280.45C287.6,273.45 278.2,268.15 266.8,264.55L266.8,347.05ZM252.4,161.65C242,162.05 233.2,165.7 226,172.6C218.8,179.5 215.2,188.65 215.2,200.05C215.2,210.85 218.6,219.3 225.4,225.4C232.2,231.5 241.2,236.05 252.4,239.05L252.4,161.65Z" style="fill:white;"/>
    </g>
</svg>
